<svg width="69" height="17" viewBox="0 0 69 17" fill="none" xmlns="http://www.w3.org/2000/svg">
<path d="M6.128 13.062C6.1 13.1087 6.10933 13.132 6.156 13.132H10.552C10.6453 13.132 10.692 13.1787 10.692 13.272V13.86C10.692 13.9533 10.6453 14 10.552 14H4.966C4.87267 14 4.826 13.9533 4.826 13.86V13.272C4.826 13.2067 4.84933 13.1507 4.896 13.104C5.21333 12.7307 5.92733 11.8533 7.038 10.472L8.074 9.184C8.95133 8.07333 9.39 7.21 9.39 6.594C9.39 6.09933 9.222 5.70267 8.886 5.404C8.55 5.10533 8.11133 4.956 7.57 4.956C7.038 4.956 6.60867 5.11 6.282 5.418C5.95533 5.71667 5.79667 6.11333 5.806 6.608V7.042C5.806 7.13533 5.75933 7.182 5.666 7.182H4.938C4.84467 7.182 4.798 7.13533 4.798 7.042V6.482C4.81667 5.76333 5.08267 5.18467 5.596 4.746C6.11867 4.30733 6.77667 4.088 7.57 4.088C8.13 4.088 8.62467 4.19533 9.054 4.41C9.48333 4.62467 9.81467 4.92333 10.048 5.306C10.2813 5.67933 10.398 6.104 10.398 6.58C10.398 7.37333 9.95933 8.33 9.082 9.45C8.62467 10.038 7.74267 11.1207 6.436 12.698L6.128 13.062ZM13.6339 13.062C13.6059 13.1087 13.6152 13.132 13.6619 13.132H18.0579C18.1512 13.132 18.1979 13.1787 18.1979 13.272V13.86C18.1979 13.9533 18.1512 14 18.0579 14H12.4719C12.3785 14 12.3319 13.9533 12.3319 13.86V13.272C12.3319 13.2067 12.3552 13.1507 12.4019 13.104C12.7192 12.7307 13.4332 11.8533 14.5439 10.472L15.5799 9.184C16.4572 8.07333 16.8959 7.21 16.8959 6.594C16.8959 6.09933 16.7279 5.70267 16.3919 5.404C16.0559 5.10533 15.6172 4.956 15.0759 4.956C14.5439 4.956 14.1145 5.11 13.7879 5.418C13.4612 5.71667 13.3025 6.11333 13.3119 6.608V7.042C13.3119 7.13533 13.2652 7.182 13.1719 7.182H12.4439C12.3505 7.182 12.3039 7.13533 12.3039 7.042V6.482C12.3225 5.76333 12.5885 5.18467 13.1019 4.746C13.6245 4.30733 14.2825 4.088 15.0759 4.088C15.6359 4.088 16.1305 4.19533 16.5599 4.41C16.9892 4.62467 17.3205 4.92333 17.5539 5.306C17.7872 5.67933 17.9039 6.104 17.9039 6.58C17.9039 7.37333 17.4652 8.33 16.5879 9.45C16.1305 10.038 15.2485 11.1207 13.9419 12.698L13.6339 13.062ZM25.3817 9.716C25.4657 10.1267 25.5077 10.5467 25.5077 10.976C25.5077 11.4333 25.4657 11.8253 25.3817 12.152C25.2231 12.7493 24.9057 13.2253 24.4297 13.58C23.9537 13.9253 23.3797 14.098 22.7077 14.098C22.0451 14.098 21.4804 13.93 21.0137 13.594C20.5471 13.258 20.2297 12.81 20.0617 12.25C19.9964 12.0447 19.9544 11.8393 19.9357 11.634V11.606C19.9357 11.5313 19.9777 11.494 20.0617 11.494H20.8037C20.8971 11.494 20.9484 11.5407 20.9577 11.634C20.9577 11.69 20.9764 11.7833 21.0137 11.914C21.1071 12.3153 21.2984 12.6373 21.5877 12.88C21.8864 13.1133 22.2551 13.23 22.6937 13.23C23.1417 13.23 23.5151 13.104 23.8137 12.852C24.1217 12.6 24.3224 12.2547 24.4157 11.816C24.4717 11.6013 24.4997 11.3213 24.4997 10.976C24.4997 10.6587 24.4764 10.3553 24.4297 10.066C24.3644 9.63667 24.1777 9.31 23.8697 9.086C23.5617 8.862 23.1791 8.75 22.7217 8.75C22.3111 8.75 21.9424 8.84333 21.6157 9.03C21.2891 9.21667 21.0791 9.464 20.9857 9.772C20.9577 9.856 20.9064 9.898 20.8317 9.898H20.0757C19.9824 9.898 19.9357 9.85133 19.9357 9.758V4.34C19.9357 4.24667 19.9824 4.2 20.0757 4.2H24.9757C25.0691 4.2 25.1157 4.24667 25.1157 4.34V4.928C25.1157 5.02133 25.0691 5.068 24.9757 5.068H20.9857C20.9484 5.068 20.9297 5.08667 20.9297 5.124L20.9157 8.512C20.9157 8.53067 20.9204 8.54467 20.9297 8.554C20.9484 8.56333 20.9671 8.55867 20.9857 8.54C21.2191 8.32533 21.4944 8.162 21.8117 8.05C22.1291 7.92867 22.4651 7.868 22.8197 7.868C23.4824 7.868 24.0424 8.03133 24.4997 8.358C24.9571 8.67533 25.2511 9.128 25.3817 9.716ZM32.9399 14.14C32.0439 14.14 31.3299 13.8833 30.7979 13.37C30.2659 12.8567 29.9999 12.1707 29.9999 11.312V6.888C29.9999 6.02933 30.2659 5.348 30.7979 4.844C31.3299 4.33067 32.0439 4.074 32.9399 4.074C33.8452 4.074 34.5685 4.33067 35.1099 4.844C35.6512 5.35733 35.9219 6.03867 35.9219 6.888V11.312C35.9219 12.1707 35.6512 12.8567 35.1099 13.37C34.5685 13.8833 33.8452 14.14 32.9399 14.14ZM32.9399 13.272C33.5372 13.272 34.0179 13.0993 34.3819 12.754C34.7459 12.4087 34.9279 11.9467 34.9279 11.368V6.846C34.9279 6.27667 34.7459 5.81933 34.3819 5.474C34.0272 5.12867 33.5465 4.956 32.9399 4.956C32.3519 4.956 31.8805 5.12867 31.5259 5.474C31.1712 5.81933 30.9939 6.27667 30.9939 6.846V11.368C30.9939 11.9467 31.1712 12.4087 31.5259 12.754C31.8805 13.0993 32.3519 13.272 32.9399 13.272ZM40.8559 14.14C39.9599 14.14 39.2459 13.8833 38.7139 13.37C38.1819 12.8567 37.9159 12.1707 37.9159 11.312V6.888C37.9159 6.02933 38.1819 5.348 38.7139 4.844C39.2459 4.33067 39.9599 4.074 40.8559 4.074C41.7612 4.074 42.4845 4.33067 43.0259 4.844C43.5672 5.35733 43.8379 6.03867 43.8379 6.888V11.312C43.8379 12.1707 43.5672 12.8567 43.0259 13.37C42.4845 13.8833 41.7612 14.14 40.8559 14.14ZM40.8559 13.272C41.4532 13.272 41.9339 13.0993 42.2979 12.754C42.6619 12.4087 42.8439 11.9467 42.8439 11.368V6.846C42.8439 6.27667 42.6619 5.81933 42.2979 5.474C41.9432 5.12867 41.4625 4.956 40.8559 4.956C40.2679 4.956 39.7965 5.12867 39.4419 5.474C39.0872 5.81933 38.9099 6.27667 38.9099 6.846V11.368C38.9099 11.9467 39.0872 12.4087 39.4419 12.754C39.7965 13.0993 40.2679 13.272 40.8559 13.272ZM48.7719 14.14C47.8759 14.14 47.1619 13.8833 46.6299 13.37C46.0979 12.8567 45.8319 12.1707 45.8319 11.312V6.888C45.8319 6.02933 46.0979 5.348 46.6299 4.844C47.1619 4.33067 47.8759 4.074 48.7719 4.074C49.6772 4.074 50.4006 4.33067 50.9419 4.844C51.4832 5.35733 51.7539 6.03867 51.7539 6.888V11.312C51.7539 12.1707 51.4832 12.8567 50.9419 13.37C50.4006 13.8833 49.6772 14.14 48.7719 14.14ZM48.7719 13.272C49.3692 13.272 49.8499 13.0993 50.2139 12.754C50.5779 12.4087 50.7599 11.9467 50.7599 11.368V6.846C50.7599 6.27667 50.5779 5.81933 50.2139 5.474C49.8592 5.12867 49.3786 4.956 48.7719 4.956C48.1839 4.956 47.7126 5.12867 47.3579 5.474C47.0032 5.81933 46.8259 6.27667 46.8259 6.846V11.368C46.8259 11.9467 47.0032 12.4087 47.3579 12.754C47.7126 13.0993 48.1839 13.272 48.7719 13.272Z" fill="#C4C4C4"/>
<mask id="path-2-inside-1_1_970" fill="white">
<path fill-rule="evenodd" clip-rule="evenodd" d="M64.1514 9.76372H65.1009H65.101C65.4847 9.76372 65.8685 9.76372 66.2725 9.72525C67.7674 9.64832 68.9592 8.43655 68.9996 6.9555C69.0198 5.43598 67.8482 4.10881 66.3533 4.03187C65.4039 3.9934 64.4746 3.9934 63.4848 4.01263C63.0404 4.03187 62.5959 4.03187 62.1313 4.03187H61.9293V7.91719V8.45576H61V9.74447H61.9293V10.2639H61.0199V11.5526H61.9293V13.3413H63.3838V11.5526H65.6258V10.2639H63.3838V9.76372H64.1514ZM63.3838 8.45576H63.7271V8.47502H64.01H64.3534H64.4342C65.2827 8.49425 65.8685 8.47502 66.2119 8.45578C67.0199 8.37884 67.6664 7.6864 67.6462 6.87856C67.6462 6.03224 66.9593 5.33981 66.0907 5.30134C65.6077 5.2726 65.1247 5.27607 64.6248 5.27966C64.4557 5.28088 64.2847 5.28211 64.111 5.28211H63.3838V7.91719V8.45576Z"/>
</mask>
<path fill-rule="evenodd" clip-rule="evenodd" d="M64.1514 9.76372H65.1009H65.101C65.4847 9.76372 65.8685 9.76372 66.2725 9.72525C67.7674 9.64832 68.9592 8.43655 68.9996 6.9555C69.0198 5.43598 67.8482 4.10881 66.3533 4.03187C65.4039 3.9934 64.4746 3.9934 63.4848 4.01263C63.0404 4.03187 62.5959 4.03187 62.1313 4.03187H61.9293V7.91719V8.45576H61V9.74447H61.9293V10.2639H61.0199V11.5526H61.9293V13.3413H63.3838V11.5526H65.6258V10.2639H63.3838V9.76372H64.1514ZM63.3838 8.45576H63.7271V8.47502H64.01H64.3534H64.4342C65.2827 8.49425 65.8685 8.47502 66.2119 8.45578C67.0199 8.37884 67.6664 7.6864 67.6462 6.87856C67.6462 6.03224 66.9593 5.33981 66.0907 5.30134C65.6077 5.2726 65.1247 5.27607 64.6248 5.27966C64.4557 5.28088 64.2847 5.28211 64.111 5.28211H63.3838V7.91719V8.45576Z" fill="#C4C4C4"/>
<path d="M66.2725 9.72525L66.2596 9.47535L66.2488 9.47638L66.2725 9.72525ZM68.9996 6.9555L69.2496 6.96232L69.2496 6.95882L68.9996 6.9555ZM66.3533 4.03187L66.3662 3.78218L66.3634 3.78207L66.3533 4.03187ZM63.4848 4.01263L63.4799 3.76261L63.474 3.76287L63.4848 4.01263ZM61.9293 4.03187V3.78187H61.6793V4.03187H61.9293ZM61.9293 8.45576V8.70576H62.1793V8.45576H61.9293ZM61 8.45576V8.20576H60.75V8.45576H61ZM61 9.74447H60.75V9.99447H61V9.74447ZM61.9293 9.74447H62.1793V9.49447H61.9293V9.74447ZM61.9293 10.2639V10.5139H62.1793V10.2639H61.9293ZM61.0199 10.2639V10.0139H60.7699V10.2639H61.0199ZM61.0199 11.5526H60.7699V11.8026H61.0199V11.5526ZM61.9293 11.5526H62.1793V11.3026H61.9293V11.5526ZM61.9293 13.3413H61.6793V13.5913H61.9293V13.3413ZM63.3838 13.3413V13.5913H63.6338V13.3413H63.3838ZM63.3838 11.5526V11.3026H63.1338V11.5526H63.3838ZM65.6258 11.5526V11.8026H65.8758V11.5526H65.6258ZM65.6258 10.2639H65.8758V10.0139H65.6258V10.2639ZM63.3838 10.2639H63.1338V10.5139H63.3838V10.2639ZM63.3838 9.76372V9.51372H63.1338V9.76372H63.3838ZM63.7271 8.45576H63.9771V8.20576H63.7271V8.45576ZM63.3838 8.45576H63.1338V8.70576H63.3838V8.45576ZM63.7271 8.47502H63.4771V8.72502H63.7271V8.47502ZM64.4342 8.47502L64.4399 8.22502H64.4342V8.47502ZM66.2119 8.45578L66.2259 8.70558L66.2356 8.70466L66.2119 8.45578ZM67.6462 6.87856H67.3961L67.3963 6.88481L67.6462 6.87856ZM66.0907 5.30134L66.0758 5.55093L66.0796 5.5511L66.0907 5.30134ZM64.6248 5.27966L64.623 5.02967H64.623L64.6248 5.27966ZM63.3838 5.28211V5.03211H63.1338V5.28211H63.3838ZM65.1009 9.51372H64.1514V10.0137H65.1009V9.51372ZM65.101 9.51372H65.1009V10.0137H65.101V9.51372ZM66.2488 9.47638C65.8584 9.51355 65.4862 9.51372 65.101 9.51372V10.0137C65.4832 10.0137 65.8786 10.0139 66.2962 9.97413L66.2488 9.47638ZM68.7497 6.94868C68.7129 8.29745 67.6261 9.40525 66.2597 9.47558L66.2854 9.97492C67.9086 9.89138 69.2055 8.57565 69.2495 6.96232L68.7497 6.94868ZM66.3405 4.28154C67.6914 4.35107 68.7682 5.55708 68.7497 6.95218L69.2496 6.95882C69.2715 5.31489 68.0049 3.86654 66.3662 3.7822L66.3405 4.28154ZM63.4896 4.26259C64.4765 4.24341 65.4004 4.24346 66.3432 4.28166L66.3634 3.78207C65.4073 3.74334 64.4728 3.74339 63.4799 3.76268L63.4896 4.26259ZM62.1313 4.28187C62.595 4.28187 63.0448 4.28191 63.4956 4.2624L63.474 3.76287C63.0359 3.78183 62.5969 3.78187 62.1313 3.78187V4.28187ZM61.9293 4.28187H62.1313V3.78187H61.9293V4.28187ZM62.1793 7.91719V4.03187H61.6793V7.91719H62.1793ZM62.1793 8.45576V7.91719H61.6793V8.45576H62.1793ZM61 8.70576H61.9293V8.20576H61V8.70576ZM61.25 9.74447V8.45576H60.75V9.74447H61.25ZM61.9293 9.49447H61V9.99447H61.9293V9.49447ZM62.1793 10.2639V9.74447H61.6793V10.2639H62.1793ZM61.0199 10.5139H61.9293V10.0139H61.0199V10.5139ZM61.2699 11.5526V10.2639H60.7699V11.5526H61.2699ZM61.9293 11.3026H61.0199V11.8026H61.9293V11.3026ZM62.1793 13.3413V11.5526H61.6793V13.3413H62.1793ZM63.3838 13.0913H61.9293V13.5913H63.3838V13.0913ZM63.1338 11.5526V13.3413H63.6338V11.5526H63.1338ZM65.6258 11.3026H63.3838V11.8026H65.6258V11.3026ZM65.3758 10.2639V11.5526H65.8758V10.2639H65.3758ZM63.3838 10.5139H65.6258V10.0139H63.3838V10.5139ZM63.1338 9.76372V10.2639H63.6338V9.76372H63.1338ZM64.1514 9.51372H63.3838V10.0137H64.1514V9.51372ZM63.7271 8.20576H63.3838V8.70576H63.7271V8.20576ZM63.9771 8.47502V8.45576H63.4771V8.47502H63.9771ZM64.01 8.22502H63.7271V8.72502H64.01V8.22502ZM64.3534 8.22502H64.01V8.72502H64.3534V8.22502ZM64.4342 8.22502H64.3534V8.72502H64.4342V8.22502ZM66.1979 8.20617C65.8612 8.22503 65.2819 8.24417 64.4399 8.22508L64.4286 8.72495C65.2834 8.74433 65.8758 8.725 66.2259 8.70539L66.1979 8.20617ZM67.3963 6.88481C67.413 7.55392 66.8731 8.14169 66.1882 8.20691L66.2356 8.70466C67.1668 8.61599 67.9198 7.81888 67.8961 6.87231L67.3963 6.88481ZM66.0796 5.5511C66.8221 5.58398 67.3962 6.17336 67.3962 6.87856H67.8962C67.8962 5.89112 67.0966 5.09564 66.1018 5.05159L66.0796 5.5511ZM64.6266 5.52965C65.1279 5.52605 65.6026 5.52273 66.0759 5.5509L66.1056 5.05178C65.6128 5.02246 65.1214 5.02609 64.623 5.02967L64.6266 5.52965ZM64.111 5.53211C64.2857 5.53211 64.4576 5.53087 64.6266 5.52965L64.623 5.02967C64.4538 5.03088 64.2836 5.03211 64.111 5.03211V5.53211ZM63.3838 5.53211H64.111V5.03211H63.3838V5.53211ZM63.6338 7.91719V5.28211H63.1338V7.91719H63.6338ZM63.1338 7.91719V8.45576H63.6338V7.91719H63.1338Z" fill="white" mask="url(#path-2-inside-1_1_970)"/>
<path d="M1.59433 15.7662L60.4054 0.233705" stroke="#C4C4C4" stroke-width="0.5"/>
</svg>
